<?xml version="1.0" encoding="UTF-8" standalone="no"?>
<svg
   width="2490.2417"
   height="1238.0135"
   viewBox="0 0 658.87644 327.55775"
   version="1.1"
   id="svg1316"
   xmlns="http://www.w3.org/2000/svg"
   xmlns:svg="http://www.w3.org/2000/svg"
   xmlns:rdf="http://www.w3.org/1999/02/22-rdf-syntax-ns#"
   xmlns:cc="http://creativecommons.org/ns#"
   xmlns:dc="http://purl.org/dc/elements/1.1/">
  <defs
     id="defs1310">
    <linearGradient
       id="linearGradient937">
      <stop
         style="stop-color:#00c5fa;stop-opacity:1;"
         offset="0"
         id="stop935" />
    </linearGradient>
    <linearGradient
       id="linearGradient931">
      <stop
         style="stop-color:#00b3e3;stop-opacity:1;"
         offset="0"
         id="stop929" />
    </linearGradient>
    <linearGradient
       id="linearGradient925">
      <stop
         style="stop-color:#00a1cc;stop-opacity:1;"
         offset="0"
         id="stop923" />
    </linearGradient>
    <linearGradient
       id="linearGradient919">
      <stop
         style="stop-color:#008fb5;stop-opacity:1;"
         offset="0"
         id="stop917" />
    </linearGradient>
    <linearGradient
       id="linearGradient913">
      <stop
         style="stop-color:#007d9e;stop-opacity:1;"
         offset="0"
         id="stop911" />
    </linearGradient>
    <linearGradient
       id="linearGradient907">
      <stop
         style="stop-color:#006b87;stop-opacity:1;"
         offset="0"
         id="stop905" />
    </linearGradient>
    <linearGradient
       id="linearGradient862">
      <stop
         style="stop-color:#4afcfc;stop-opacity:1;"
         offset="0"
         id="stop860" />
    </linearGradient>
  </defs>
  <metadata
     id="metadata1313">
    <rdf:RDF>
      <cc:Work
         rdf:about="">
        <dc:format>image/svg+xml</dc:format>
        <dc:type
           rdf:resource="http://purl.org/dc/dcmitype/StillImage" />
      </cc:Work>
    </rdf:RDF>
  </metadata>
  <g
     id="layer1"
     style="display:inline;opacity:1"
     transform="translate(3175.2169,-393.04962)">
    <rect
       style="fill:#000000;fill-opacity:0;stroke-width:2.81517;stroke-linecap:round;stroke-linejoin:round;paint-order:markers stroke fill"
       id="rect16"
       width="50.648811"
       height="65.011902"
       x="-148.92261"
       y="-3.0238097" />
  </g>
  <g
     id="webslicer-layer"
     style="opacity:1"
     transform="translate(3175.2169,-393.04962)">
    <path
       id="path102370"
       style="fill:#ffffff;stroke-width:0.743797"
       d="m -2526.3517,393.05423 c -4.7974,0.14605 -9.8089,3.08719 -12.6065,4.74493 -31.9885,18.98468 -36.7035,52.47466 -47.7816,71.70778 -8.8386,15.36684 -23.2112,26.65171 -36.0603,27.57402 -9.6374,0.71478 -20.0197,-1.23309 -30.3615,-5.77175 -25.1493,-11.02532 -38.911,-25.26297 -42.154,-27.78072 -6.7566,-5.21253 -59.2108,-56.7033 -101.707,-58.80677 0,0 -5.2737,-10.55896 -6.6006,-10.73525 -3.1091,-0.39421 -6.2892,6.31044 -8.569,7.08845 -2.1451,0.71406 -5.7513,-7.2648 -7.9173,-6.91224 v 0 c -2.1555,0.3325 -4.2278,8.26966 -8.3938,12.40441 -3.0466,2.98413 -6.8496,2.7977 -8.8697,6.48694 -0.7669,1.37827 -0.5183,3.73089 -1.3886,5.98983 -1.6996,4.51781 -7.6884,4.92138 -7.6884,9.84385 -0.021,5.3159 4.9944,6.33145 9.3359,10.10324 3.3888,3.03618 3.7204,5.1294 7.8232,6.60064 3.5034,1.19229 8.7155,-2.70494 13.4096,-1.30587 3.855,1.15067 7.5434,1.97966 8.4144,5.93814 0.7661,3.64758 -0.052,9.3045 -4.7253,8.6522 -1.5752,-0.17629 -8.4044,-2.4765 -16.7974,-1.58544 -10.1245,1.15065 -21.6788,4.455 -22.8079,15.74065 -0.6218,6.31036 7.181,13.75089 14.7149,12.23801 5.2118,-1.02645 2.746,-7.17008 5.5852,-10.15495 3.7197,-3.8231 24.7963,13.34648 44.3916,13.34648 8.2487,0 14.3833,-2.08237 20.4773,-8.46563 0.569,-0.48718 1.2634,-1.53382 2.144,-1.59629 0.8294,0.0625 2.2797,0.88043 2.7564,1.23299 15.7819,12.68325 27.7091,38.12352 85.7075,38.42401 8.155,0.0409 17.4494,3.93753 25.0346,10.85929 6.7671,6.25906 10.7253,15.98867 14.5692,25.86405 5.8031,14.81868 16.2077,29.23299 31.9784,45.27373 0.8606,0.85984 13.8441,10.95293 14.8802,11.70937 0.1659,0.10338 1.1196,2.38303 0.7886,3.65713 -0.3838,9.61657 -1.7831,37.58432 19.0655,38.84879 5.0987,0.25885 3.7615,-3.3265 3.7615,-5.79292 -0.01,-4.87039 -0.9014,-9.70949 1.6692,-14.69368 3.5121,-6.8593 -7.4507,-10.02028 -7.1293,-24.84861 0.2276,-11.05654 -9.0574,-9.17107 -13.7723,-17.5953 -2.7148,-4.88079 -5.129,-7.47082 -4.9527,-13.44054 1.0569,-33.59362 -7.1506,-55.66584 -11.2437,-61.08515 -3.1909,-4.0931 -5.8332,-5.71992 -2.9115,-7.61658 17.3989,-11.49168 21.3465,-22.18574 21.3465,-22.18574 9.2529,-21.75012 17.5745,-41.61541 29.0453,-50.36023 2.311,-1.80372 8.2385,-6.22779 11.8757,-7.96902 10.704,-5.04668 16.3414,-8.10305 19.4505,-11.12956 4.9217,-4.79751 8.8072,-14.79725 4.0923,-20.8592 -2.1994,-2.80569 -5.0007,-3.72408 -7.8791,-3.63645 z m -648.8652,168.42849 v 159.12464 h 43.6671 v -39.98878 h 44.1331 c 7.9274,0 14.32,-6.3931 14.32,-14.33091 v -90.47353 c 0,-7.9274 -6.1549,-14.33142 -14.0399,-14.33142 z m 116.9498,0 v 146.11924 c 0,7.16052 5.8023,13.0054 12.9212,13.0054 h 76.3607 c 7.1702,0 12.9011,-5.84488 12.9011,-13.0054 V 561.48272 h -43.646 l -0.042,132.55521 c 0,4.06152 -3.399,7.34611 -7.4187,7.44038 -4.0001,-0.0937 -7.3985,-3.37852 -7.3985,-7.44038 l 0.01,-132.55521 z m 131.2277,0 c -7.8233,0 -14.196,6.36283 -14.196,14.2694 v 144.85421 h 43.728 v -132.8751 c 0.031,-4.07228 3.3261,-7.29517 7.3887,-7.29517 4.0827,0 7.3572,3.15011 7.4502,7.18148 v 132.98982 h 43.5529 V 587.61598 c 0.052,-4.03063 3.3262,-7.18042 7.3985,-7.18042 4.0418,0 7.3786,3.22286 7.4099,7.29515 v 132.87665 h 43.7286 V 575.75212 c 0,-7.90657 -6.3836,-14.2694 -14.2069,-14.2694 h -66.1313 z m 175.4875,0 c -7.824,0 -14.1961,6.36283 -14.1961,14.2694 v 144.85524 h 43.6459 v -39.94742 h 14.8389 v 39.94742 h 43.6666 V 575.75315 c 0,-7.90657 -6.3729,-14.2694 -14.2177,-14.2694 z m -379.9979,18.95284 h 7.4191 c 3.8239,0 7.4295,3.14987 7.3985,7.57473 v 65.43889 c 0.032,4.40328 -3.5434,7.47035 -7.3985,7.47035 h -7.4191 z m 416.8463,0.0832 c 4.0723,0 7.3362,3.10859 7.4403,7.16081 v 73.27149 h -14.8389 v -73.1578 c 0.03,-4.0418 3.3672,-7.2745 7.3986,-7.2745 z" />
  </g>
</svg>
